<svg xmlns="http://www.w3.org/2000/svg" width="19" height="14" viewBox="0 0 19 14">
    <g fill="none" fill-rule="evenodd" opacity=".8">
        <g fill="#1E1761" fill-rule="nonzero">
            <g>
                <g>
                    <path d="M1127.436 7.42c-.217-.816-.853-1.46-1.66-1.679-1.472-.408-7.364-.408-7.364-.408s-5.892 0-7.365.393c-.791.22-1.442.878-1.66 1.694C1109 8.91 1109 12 1109 12s0 3.106.388 4.58c.217.816.852 1.46 1.659 1.679 1.488.408 7.365.408 7.365.408s5.892 0 7.365-.393c.806-.22 1.442-.862 1.659-1.678.387-1.49.387-4.58.387-4.58s.016-3.106-.387-4.596zm-10.9 7.435v-5.71l4.9 2.855-4.9 2.855z" transform="translate(-1249 -3492) translate(0 3090) translate(140 397)"/>
                </g>
            </g>
        </g>
    </g>
</svg>
